<?xml version="1.0" encoding="UTF-8"?>
<svg xmlns="http://www.w3.org/2000/svg" xmlns:xlink="http://www.w3.org/1999/xlink" width="905pt" height="903pt" viewBox="0 0 905 903" version="1.1">
<g id="surface1">
<rect x="0" y="0" width="905" height="903" style="fill:rgb(100%,100%,100%);fill-opacity:1;stroke:none;"/>
<path style=" stroke:none;fill-rule:nonzero;fill:rgb(10.998535%,28.599548%,62.399292%);fill-opacity:1;" d="M 248 427 L 296.71875 406.304688 C 296.71875 406.304688 266.667969 342.332031 189 353.332031 C 118.75 367.75 97.082031 426.082031 101.832031 469.585938 C 113.167969 571.667969 257.667969 600.5 302.785156 494.214844 C 308.785156 510.214844 329.667969 553.679688 396.667969 558.507813 C 461.667969 558.507813 501.667969 558.507813 501.667969 558.507813 C 501.667969 558.507813 468.332031 547 446.667969 509.332031 C 425 509.332031 391.332031 509.332031 391.332031 509.332031 C 391.332031 509.332031 348.332031 505.34375 347.332031 455.503906 C 347.332031 413 384.667969 401.332031 393.667969 401.332031 C 402.667969 401.332031 448 401.332031 448 401.332031 C 448 401.332031 460 372.339844 501.667969 352.503906 C 475.667969 352.503906 389 352.503906 389 352.503906 C 389 352.503906 306.332031 358.667969 294.332031 445.667969 C 256.667969 445.667969 219.667969 445.667969 219.667969 445.667969 L 196.667969 485 L 247.667969 485 C 247.667969 485 250.5 510.5 221.667969 518.332031 C 193 521.667969 157.5 516.25 153.332031 459 C 153.332031 402.25 192.625 395.875 205.332031 396 C 218.257813 396.128906 238.75 399.5 248 427 "/>
<path style=" stroke:none;fill-rule:nonzero;fill:rgb(10.998535%,28.599548%,62.399292%);fill-opacity:1;" d="M 625.332031 401.332031 L 625.332031 352.445313 L 547.332031 352.445313 C 547.332031 352.445313 464.25 359 452.5 442.667969 C 444 530.75 520 555 546 558 C 574.332031 558 652 558 652 558 L 652 542 L 670.332031 542 L 670.332031 559.332031 L 754.25 559.332031 L 754.25 543.5 L 737 543.5 L 737 525.25 L 754.25 525.25 L 754.25 509.25 L 720.75 509.25 L 720.75 526.25 L 703.75 526.25 L 703.75 543.25 L 686.75 543.25 L 686.75 526.5 L 702.25 526.5 L 702.25 509 L 551.75 509 C 551.75 509 504.75 510.007813 504.75 450.496094 C 510.75 412.25 537.566406 403.230469 550.5 401.75 C 563.003906 401.75 625.332031 401.332031 625.332031 401.332031 "/>
<path style=" stroke:none;fill-rule:nonzero;fill:rgb(10.998535%,28.599548%,62.399292%);fill-opacity:1;" d="M 771.582031 543.167969 L 754.25 543.167969 L 754.25 525.832031 L 771.582031 525.832031 L 771.582031 543.167969 "/>
<path style=" stroke:none;fill-rule:nonzero;fill:rgb(10.998535%,28.599548%,62.399292%);fill-opacity:1;" d="M 788.917969 525.832031 L 771.582031 525.832031 L 771.582031 508.5 L 788.917969 508.5 L 788.917969 525.832031 "/>
<path style=" stroke:none;fill-rule:nonzero;fill:rgb(10.998535%,28.599548%,62.399292%);fill-opacity:1;" d="M 822.832031 525.832031 L 805.5 525.832031 L 805.5 508.5 L 822.832031 508.5 L 822.832031 525.832031 "/>
<path style=" stroke:none;fill-rule:nonzero;fill:rgb(10.998535%,28.599548%,62.399292%);fill-opacity:1;" d="M 788.917969 560.5 L 771.582031 560.5 L 771.582031 543.167969 L 788.917969 543.167969 L 788.917969 560.5 "/>
<path style=" stroke:none;fill-rule:nonzero;fill:rgb(10.998535%,28.599548%,62.399292%);fill-opacity:1;" d="M 805.5 543.167969 L 788.167969 543.167969 L 788.167969 525.832031 L 805.5 525.832031 L 805.5 543.167969 "/>
<path style=" stroke:none;fill-rule:nonzero;fill:rgb(10.998535%,28.599548%,62.399292%);fill-opacity:1;" d="M 839.5 543.167969 L 822.167969 543.167969 L 822.167969 525.832031 L 839.5 525.832031 L 839.5 543.167969 "/>
</g>
</svg>
